<?xml version="1.0" encoding="utf-8"?>
<svg xmlns="http://www.w3.org/2000/svg" xmlns:svg="http://www.w3.org/2000/svg" version="1.1" viewBox="0 0 1400 520">
	<title>The titlepage for the Standard Ebooks edition of Mindfulness in Plain English, by Ven. Henepola Gunaratana</title>
	<g aria-label="MINDFULNESS">
		<path d="m 397.1133,130 h 17.59064 L 407.77997,52.807016 H 389.06652 L 371.94371,97.345029 354.8209,52.807016 H 336.10745 L 329.18347,130 h 17.59065 l 3.64912,-45.754387 h 0.46784 l 15.81286,45.286547 h 10.47953 l 15.81287,-45.286547 h 0.46784 z"/>
		<path d="M 444.34137,52.807016 H 426.75073 V 130 h 17.59064 z"/>
		<path d="m 478.21564,82.093566 h 0.18713 L 509.09283,130 h 17.59065 V 52.807016 H 509.09283 V 100.71345 H 508.9057 L 478.21564,52.807016 H 460.62499 V 130 h 17.59065 z"/>
		<path d="M 542.92763,52.807016 V 130 h 22.36257 c 21.23977,0 38.92398,-16.09357 38.92398,-38.643276 0,-22.45614 -17.77778,-38.549708 -38.92398,-38.549708 z M 560.51827,114.2807 V 68.526315 h 2.71345 c 13.09942,0 21.98831,10.011696 21.98831,22.923977 -0.0936,12.912278 -8.98246,22.830408 -21.98831,22.830408 z"/>
		<path d="M 661.63816,52.807016 H 617.00658 V 130 h 17.59064 V 99.029239 h 24.98246 V 83.590642 H 634.59722 V 68.245613 h 27.04094 z"/>
		<path d="m 734.32529,52.807016 h -17.59065 v 44.63158 c 0,12.912284 -3.92982,16.654974 -12.53801,16.654974 -8.60819,0 -12.53801,-3.74269 -12.53801,-16.654974 v -44.63158 h -17.59064 v 49.777774 c 0,19.08772 10.47953,28.81872 30.12865,28.81872 19.64913,0 30.12866,-9.731 30.12866,-28.81872 z"/>
		<path d="M 767.22149,52.807016 H 749.63085 V 130 h 44.16374 v -15.4386 h -26.5731 z"/>
		<path d="m 825.03582,82.093566 h 0.18714 L 855.91301,130 h 17.59065 V 52.807016 h -17.59065 v 47.906434 h -0.18713 L 825.03582,52.807016 H 807.44518 V 130 h 17.59064 z"/>
		<path d="M 933.91156,52.807016 H 889.74782 V 130 h 44.16374 v -15.4386 h -26.5731 V 99.029239 h 25.4503 V 83.590642 h -25.4503 V 68.245613 h 26.5731 z"/>
		<path d="m 977.46857,51.403507 c -12.44444,0 -25.16959,9.169591 -25.16959,23.578948 0,8.046784 5.4269,15.251462 14.69006,19.836258 9.16959,4.584795 17.40351,7.111107 17.40351,12.725147 0,7.20468 -7.29825,7.57895 -11.13451,7.57895 -8.60818,0 -18.90058,-8.70176 -18.90058,-8.70176 l -8.79532,14.78363 c 0,0 10.94737,10.19883 29.00585,10.19883 15.06432,0 29.09941,-6.45614 29.09941,-24.88889 0,-10.105264 -9.45029,-17.40351 -18.05848,-21.052632 -8.79532,-3.742691 -16.09357,-6.83041 -16.09357,-11.134504 0,-4.210526 3.18129,-6.923976 9.1696,-6.923976 7.95321,0 15.62573,5.333333 15.62573,5.333333 l 7.11112,-14.035088 c 0,0 -9.91814,-7.298246 -23.95323,-7.298246 z"/>
		<path d="m 1043.5066,51.403507 c -12.4444,0 -25.1696,9.169591 -25.1696,23.578948 0,8.046784 5.4269,15.251462 14.6901,19.836258 9.1696,4.584795 17.4035,7.111107 17.4035,12.725147 0,7.20468 -7.2983,7.57895 -11.1345,7.57895 -8.6082,0 -18.9006,-8.70176 -18.9006,-8.70176 l -8.7953,14.78363 c 0,0 10.9473,10.19883 29.0058,10.19883 15.0643,0 29.0994,-6.45614 29.0994,-24.88889 0,-10.105264 -9.4503,-17.40351 -18.0585,-21.052632 -8.7953,-3.742691 -16.0935,-6.83041 -16.0935,-11.134504 0,-4.210526 3.1813,-6.923976 9.1696,-6.923976 7.9532,0 15.6257,5.333333 15.6257,5.333333 l 7.1111,-14.035088 c 0,0 -9.9181,-7.298246 -23.9532,-7.298246 z"/>
	</g>
	<g aria-label="IN PLAIN ENGLISH">
		<path d="M 247.47368,152.80702 H 229.88303 V 230 h 17.59065 z"/>
		<path d="m 281.34794,182.09357 h 0.18714 L 312.22514,230 h 17.59064 v -77.19298 h -17.59064 v 47.90643 H 312.038 L 281.34794,152.80702 H 263.7573 V 230 h 17.59064 z"/>
		<path d="M 376.64474,152.80702 V 230 h 17.59064 v -28.63158 h 10.5731 c 15.06433,0 26.38597,-8.88889 26.38597,-24.79532 0,-16 -11.32164,-23.76608 -26.38597,-23.76608 z m 17.59064,34.52631 V 166.8421 h 4.95906 c 6.92398,0 13.47369,2.33919 13.47369,10.2924 0,7.85965 -6.54971,10.19883 -13.47369,10.19883 z"/>
		<path d="M 461.55263,152.80702 H 443.96198 V 230 h 44.16375 v -15.4386 h -26.5731 z"/>
		<path d="M 542.443,152.80702 H 526.1623 L 495.0044,230 h 18.90059 l 5.7076,-15.4386 h 29.38012 L 554.70031,230 h 18.90058 z m 0.5614,46.31579 h -17.40351 l 8.60819,-22.45614 h 0.18713 z"/>
		<path d="M 599.11113,152.80702 H 581.52048 V 230 h 17.59065 z"/>
		<path d="m 632.9854,182.09357 h 0.18713 L 663.86259,230 h 17.59064 v -77.19298 h -17.59064 v 47.90643 h -0.18714 L 632.9854,152.80702 H 615.39475 V 230 h 17.59065 z"/>
		<path d="M 772.44592,152.80702 H 728.28217 V 230 h 44.16375 v -15.4386 h -26.5731 v -15.53216 h 25.45029 v -15.4386 h -25.45029 v -15.34503 h 26.5731 z"/>
		<path d="m 805.14915,182.09357 h 0.18714 L 836.02635,230 h 17.59064 v -77.19298 h -17.59064 v 47.90643 h -0.18714 L 805.14915,152.80702 H 787.55851 V 230 h 17.59064 z"/>
		<path d="m 939.66229,186.77193 h -35.64912 v 13.56725 h 17.77778 c 0,9.45029 -8.32749,14.87719 -16.74854,14.87719 -10.8538,0 -19.64912,-10.66666 -19.64912,-23.76608 0,-13.38012 8.79532,-24.14035 19.64912,-24.14035 6.83041,0 12.72515,2.71345 17.21637,9.91813 l 11.50878,-12.63158 c -6.73685,-8.14035 -16.18714,-13.19298 -29.75439,-13.19298 -21.7076,0 -37.61404,17.87134 -37.61404,40.04678 0,22.08187 16.84211,39.95322 37.61404,39.95322 15.15789,0 31.4386,-8.32749 35.64912,-27.88304 z"/>
		<path d="M 969.93718,152.80702 H 952.34653 V 230 h 44.16375 v -15.4386 h -26.5731 z"/>
		<path d="m 1027.7514,152.80702 h -17.5906 V 230 h 17.5906 z"/>
		<path d="m 1070.6521,151.40351 c -12.4445,0 -25.1696,9.16959 -25.1696,23.57895 0,8.04678 5.4269,15.25146 14.69,19.83625 9.1696,4.5848 17.4035,7.11111 17.4035,12.72515 0,7.20468 -7.2982,7.57895 -11.1345,7.57895 -8.6082,0 -18.9005,-8.70176 -18.9005,-8.70176 l -8.7954,14.78363 c 0,0 10.9474,10.19883 29.0059,10.19883 15.0643,0 29.0994,-6.45614 29.0994,-24.88889 0,-10.10526 -9.4503,-17.40351 -18.0585,-21.05263 -8.7953,-3.74269 -16.0936,-6.83041 -16.0936,-11.13451 0,-4.21052 3.1813,-6.92397 9.1696,-6.92397 7.9533,0 15.6258,5.33333 15.6258,5.33333 l 7.1111,-14.03509 c 0,0 -9.9181,-7.29824 -23.9532,-7.29824 z"/>
		<path d="m 1127.6637,199.02924 h 24.8889 V 230 h 17.5907 v -77.19298 h -17.5907 v 30.78362 h -24.8889 v -30.78362 h -17.5906 V 230 h 17.5906 z"/>
	</g>
	<g aria-label="VEN.">
		<path d="m 625.72588,390 h 10.38596 l 24.2807,-57.89474 h -14.87719 l -14.59649,38.03509 -14.59649,-38.03509 h -14.87719 z"/>
		<path d="M 700.70505,332.10526 H 667.58224 V 390 h 33.12281 v -11.57895 h -19.92983 v -11.64912 h 19.08772 v -11.57895 h -19.08772 v -11.50877 h 19.92983 z"/>
		<path d="m 726.48246,354.07018 h 0.14035 L 749.64035,390 h 13.19299 v -57.89474 h -13.19299 v 35.92983 H 749.5 L 726.48246,332.10526 H 713.28948 V 390 h 13.19298 z"/>
		<path d="m 784.26646,374.98246 c -4.42105,0 -8,3.57894 -8,8.07017 0,4.42105 3.57895,8 8,8 4.49123,0 8.07017,-3.57895 8.07017,-8 0,-4.49123 -3.57894,-8.07017 -8.07017,-8.07017 z"/>
	</g>
	<g aria-label="HENEPOLA GUNARATANA">
		<path d="m 198.7193,446.77193 h 18.66667 V 470 h 13.19298 v -57.89474 h -13.19298 v 23.08772 H 198.7193 V 412.10526 H 185.52632 V 470 h 13.19298 z"/>
		<path d="m 277.10307,412.10526 h -33.1228 V 470 h 33.1228 v -11.57895 h -19.92982 v -11.64912 h 19.08772 v -11.57895 h -19.08772 v -11.50877 h 19.92982 z"/>
		<path d="m 302.88048,434.07018 h 0.14035 L 326.03838,470 h 13.19298 v -57.89474 h -13.19298 v 35.92983 h -0.14036 L 302.88048,412.10526 H 289.6875 V 470 h 13.19298 z"/>
		<path d="M 385.78728,412.10526 H 352.66447 V 470 h 33.12281 v -11.57895 h -19.92982 v -11.64912 h 19.08771 v -11.57895 h -19.08771 v -11.50877 h 19.92982 z"/>
		<path d="M 398.37172,412.10526 V 470 h 13.19298 v -21.47368 h 7.92983 c 11.29824,0 19.78947,-6.66667 19.78947,-18.5965 0,-11.99999 -8.49123,-17.82456 -19.78947,-17.82456 z M 411.5647,438 v -15.36842 h 3.7193 c 5.19298,0 10.10526,1.75439 10.10526,7.7193 0,5.89473 -4.91228,7.64912 -10.10526,7.64912 z"/>
		<path d="m 447.51317,441.01754 c 0,16.91228 12.07018,30.03509 29.19298,30.03509 16.63158,0 29.12281,-13.12281 29.12281,-30.03509 0,-16.91228 -13.05263,-29.96491 -29.12281,-29.96491 -15.92982,0 -29.19298,13.05263 -29.19298,29.96491 z m 14.24562,0 c 0,-8.63157 4.77193,-17.26315 14.94736,-17.26315 10.24562,0 14.8772,8.63158 14.8772,17.26315 0,8.63158 -4.35088,17.26316 -14.8772,17.26316 -10.80701,0 -14.94736,-8.63158 -14.94736,-17.26316 z"/>
		<path d="M 529.8432,412.10526 H 516.65022 V 470 h 33.12281 V 458.42105 H 529.8432 Z"/>
		<path d="M 591.76097,412.10526 H 579.55045 L 556.18203,470 h 14.17544 l 4.2807,-11.57895 h 22.03509 L 600.95396,470 h 14.17544 z m 0.42106,34.73685 H 579.1294 L 585.58554,430 h 0.14035 z"/>
		<path d="m 698.85855,437.57895 h -26.73684 v 10.17544 h 13.33333 c 0,7.08772 -6.24561,11.15789 -12.5614,11.15789 -8.14035,0 -14.73684,-8 -14.73684,-17.82456 0,-10.03509 6.59649,-18.10526 14.73684,-18.10526 5.12281,0 9.54386,2.03508 12.91228,7.43859 l 8.63158,-9.47368 c -5.05263,-6.10526 -12.14035,-9.89474 -22.31579,-9.89474 -16.2807,0 -28.21053,13.40351 -28.21053,30.03509 0,16.5614 12.63158,29.96491 28.21053,29.96491 11.36842,0 23.57895,-6.24561 26.73684,-20.91228 z"/>
		<path d="m 754.11295,412.10526 h -13.19299 v 33.47369 c 0,9.68421 -2.94736,12.49123 -9.40351,12.49123 -6.45614,0 -9.4035,-2.80702 -9.4035,-12.49123 v -33.47369 h -13.19299 v 37.33334 c 0,14.31579 7.85965,21.61403 22.59649,21.61403 14.73685,0 22.5965,-7.29824 22.5965,-21.61403 z"/>
		<path d="m 780.0351,434.07018 h 0.14035 L 803.19299,470 h 13.19299 v -57.89474 h -13.19299 v 35.92983 h -0.14035 L 780.0351,412.10526 H 766.84212 V 470 h 13.19298 z"/>
		<path d="M 859.22261,412.10526 H 847.01209 L 823.64367,470 h 14.17544 l 4.2807,-11.57895 H 864.1349 L 868.4156,470 h 14.17544 z m 0.42106,34.73685 H 846.59104 L 853.04718,430 h 0.14035 z"/>
		<path d="M 889.78071,412.10526 V 470 H 902.9737 V 447.12281 L 920.65791,470 h 16.77193 l -19.92983,-23.92982 c 7.08772,-2.24562 11.85965,-8.07018 11.85965,-16.77193 0,-11.36842 -8.14035,-17.19299 -18.87719,-17.19299 z m 13.19299,25.68421 v -15.15789 h 1.54386 c 4.98245,0 10.94737,0.35088 10.94737,7.57895 0,7.22807 -5.96492,7.57894 -10.94737,7.57894 z"/>
		<path d="M 974.48574,412.10526 H 962.27521 L 938.90679,470 h 14.17544 l 4.2807,-11.57895 h 22.03509 L 983.67872,470 h 14.17544 z m 0.42105,34.73685 H 961.85416 L 968.3103,430 h 0.14035 z"/>
		<path d="m 997.9682,423.68421 h 13.7544 V 470 h 13.193 v -46.31579 h 13.7544 v -11.57895 h -40.7018 z"/>
		<path d="m 1074.398,412.10526 h -12.2105 L 1038.8191,470 h 14.1754 l 4.2807,-11.57895 h 22.0351 L 1083.591,470 h 14.1755 z m 0.4211,34.73685 h -13.0526 L 1068.2226,430 h 0.1403 z"/>
		<path d="m 1118.1491,434.07018 h 0.1404 L 1141.307,470 h 13.193 v -57.89474 h -13.193 v 35.92983 h -0.1403 l -23.0176,-35.92983 h -13.193 V 470 h 13.193 z"/>
		<path d="m 1197.3366,412.10526 h -12.2105 L 1161.7577,470 h 14.1754 l 4.2807,-11.57895 h 22.0351 L 1206.5296,470 h 14.1754 z m 0.4211,34.73685 H 1184.705 L 1191.1612,430 h 0.1403 z"/>
	</g>
</svg>
